<?xml version="1.0" encoding="UTF-8" standalone="no"?>
<!-- Created with Inkscape (http://www.inkscape.org/) -->
<svg
   xmlns:dc="http://purl.org/dc/elements/1.1/"
   xmlns:cc="http://web.resource.org/cc/"
   xmlns:rdf="http://www.w3.org/1999/02/22-rdf-syntax-ns#"
   xmlns:svg="http://www.w3.org/2000/svg"
   xmlns="http://www.w3.org/2000/svg"
   xmlns:sodipodi="http://sodipodi.sourceforge.net/DTD/sodipodi-0.dtd"
   xmlns:inkscape="http://www.inkscape.org/namespaces/inkscape"
   width="256"
   height="256"
   id="svg2"
   sodipodi:version="0.32"
   inkscape:version="0.45.1"
   version="1.0"
   sodipodi:docbase="C:\fw50\Src\FwCoreDlgs\res"
   sodipodi:docname="SIL logo.svg"
   inkscape:output_extension="org.inkscape.output.svg.inkscape">
  <defs
	 id="defs4" />
  <sodipodi:namedview
	 id="base"
	 pagecolor="#ffffff"
	 bordercolor="#666666"
	 borderopacity="1.0"
	 gridtolerance="10000"
	 guidetolerance="10"
	 objecttolerance="10"
	 inkscape:pageopacity="0.0"
	 inkscape:pageshadow="2"
	 inkscape:zoom="0.71266541"
	 inkscape:cx="309.64456"
	 inkscape:cy="61.114059"
	 inkscape:document-units="px"
	 inkscape:current-layer="layer1"
	 width="256px"
	 height="256px"
	 inkscape:window-width="744"
	 inkscape:window-height="573"
	 inkscape:window-x="110"
	 inkscape:window-y="145" />
  <metadata
	 id="metadata7">
	<rdf:RDF>
	  <cc:Work
		 rdf:about="">
		<dc:format>image/svg+xml</dc:format>
		<dc:type
		   rdf:resource="http://purl.org/dc/dcmitype/StillImage" />
	  </cc:Work>
	</rdf:RDF>
  </metadata>
  <g
	 inkscape:label="Layer 1"
	 inkscape:groupmode="layer"
	 id="layer1">
	<g
	   id="g3164">
	  <rect
		 y="0.38118371"
		 x="19.496191"
		 height="255.23763"
		 width="217.00761"
		 id="rect2190"
		 style="fill:#ffffff;fill-opacity:1;stroke:#fff9f9;stroke-width:0.76238233;stroke-linecap:round;stroke-miterlimit:4;stroke-dasharray:none;stroke-opacity:1" />
	  <path
		 id="path2188"
		 d="M 19.115,128 L 19.115,0 L 127.99969,0 L 236.88438,0 L 236.88438,128 L 236.88438,256 L 127.99969,256 L 19.115,256 L 19.115,128 z M 71.512388,237.65211 C 72.453468,237.29432 72.636618,236.94131 72.470038,235.80632 C 72.290958,234.58618 72.090138,234.42846 70.932028,234.59844 C 68.441668,234.96395 67.992128,233.86934 67.992128,227.43996 L 67.992128,221.69386 L 70.290798,221.54636 C 72.489488,221.40528 72.589478,221.33571 72.589478,219.94707 C 72.589478,218.55843 72.489488,218.48886 70.290798,218.34778 L 67.992128,218.20028 L 67.992128,215.99732 C 67.992128,214.18086 67.856888,213.84627 67.221268,214.09018 C 66.797298,214.25287 65.926228,214.51754 65.285538,214.67834 C 64.347168,214.91386 64.120668,215.28359 64.120668,216.57987 C 64.120668,217.97556 63.944138,218.20933 62.789858,218.34215 C 61.667828,218.47125 61.459048,218.72304 61.459048,219.94707 C 61.459048,221.1711 61.667828,221.42289 62.789858,221.55199 L 64.120668,221.70512 L 64.120668,227.4957 C 64.120668,234.33933 64.724468,236.32152 67.127128,237.36542 C 69.015508,238.18589 69.948098,238.24685 71.512388,237.65211 z M 87.664668,237.07884 C 89.028058,236.65 89.151608,236.46034 88.829858,235.29011 C 88.560608,234.31083 88.237398,234.04205 87.546728,234.22306 C 87.038958,234.35614 85.135418,234.46503 83.316638,234.46503 C 80.193288,234.46503 79.931438,234.37732 78.598298,232.88461 C 77.821998,232.01539 77.186828,230.76954 77.186828,230.11605 L 77.186828,228.9279 L 83.598928,228.79288 L 90.011028,228.65784 L 89.948038,226.16529 C 89.803148,220.43228 85.345888,216.83816 80.124568,218.24411 C 74.348128,219.79955 71.566908,227.13679 74.512868,233.04855 C 76.726248,237.49023 81.604328,238.98508 87.664668,237.07884 z M 77.188638,225.3913 C 77.192228,224.19372 79.149698,221.60656 80.416678,221.12485 C 83.093058,220.10729 85.615538,221.56131 86.194318,224.4552 L 86.502518,225.99622 L 81.844678,225.99622 C 78.440058,225.99622 77.187318,225.83346 77.188638,225.3913 z M 135.62162,237.57183 L 137.67833,237.65518 L 137.67652,230.25292 C 137.67454,222.15728 137.27796,220.73342 134.52219,218.92777 C 132.90864,217.87053 128.41331,217.8653 125.89452,218.91772 C 124.32027,219.57548 124.10524,219.84306 124.3946,220.78418 C 124.86563,222.31612 124.93908,222.35166 126.32665,221.71944 C 127.00571,221.41004 128.56831,221.1569 129.7991,221.1569 C 132.32568,221.1569 133.80687,222.14919 133.80687,223.84182 C 133.80687,224.78893 133.43374,224.99067 130.83542,225.44835 C 126.91815,226.13836 124.65809,227.36741 123.56766,229.40063 C 122.41906,231.54231 122.44326,233.10877 123.65564,235.09731 C 125.05021,237.38468 127.10823,238.17823 130.66132,237.79866 C 132.25829,237.62806 134.49043,237.52598 135.62162,237.57183 z M 127.85674,234.58601 C 126.57499,233.631 126.31525,231.22997 127.35486,229.94669 C 128.20657,228.89536 130.91415,227.96775 133.20196,227.94349 C 134.21784,227.93272 134.2908,228.13752 134.2908,230.99982 C 134.2908,233.81773 134.19037,234.11347 133.05821,234.62931 C 131.44048,235.3664 128.87545,235.34504 127.85674,234.58601 z M 148.9588,237.64554 C 149.89626,237.28911 150.09065,236.93995 149.90175,235.95177 C 149.70259,234.90992 149.39965,234.70699 148.04348,234.70699 C 145.7603,234.70699 145.42124,233.74466 145.42124,227.26438 L 145.42124,221.69386 L 147.71992,221.54636 C 149.9186,221.40528 150.01859,221.33571 150.01859,219.94707 C 150.01859,218.55843 149.9186,218.48886 147.71992,218.34778 L 145.42124,218.20028 L 145.42124,215.99732 C 145.42124,214.18086 145.286,213.84627 144.65038,214.09018 C 144.22641,214.25287 143.35533,214.51754 142.71466,214.67834 C 141.77628,214.91386 141.54978,215.28359 141.54978,216.57987 C 141.54978,217.97556 141.37325,218.20933 140.21897,218.34215 C 139.09694,218.47125 138.88816,218.72304 138.88816,219.94707 C 138.88816,221.1711 139.09694,221.42289 140.21897,221.55199 L 141.54978,221.70512 L 141.54978,227.4957 C 141.54978,234.33933 142.15359,236.32152 144.55624,237.36542 C 146.44943,238.18797 147.37688,238.24698 148.9588,237.64554 z M 172.26564,236.49888 C 173.68073,235.72513 174.58003,234.7126 175.546,232.80548 C 178.65938,226.65874 175.89174,219.64164 169.84303,218.34613 C 163.28671,216.94189 158.2442,221.22616 158.27592,228.17391 C 158.31181,236.03807 165.39724,240.25445 172.26564,236.49888 z M 164.13363,233.33975 C 161.44009,230.5283 161.34476,225.7331 163.924,222.7955 C 165.13619,221.4149 165.68731,221.1569 167.42428,221.1569 C 169.00599,221.1569 169.78254,221.45358 170.76047,222.43151 C 173.45095,225.12199 173.54961,230.11476 170.97035,233.05237 C 169.74869,234.44377 169.19351,234.70699 167.48055,234.70699 C 165.8769,234.70699 165.16485,234.41612 164.13363,233.33975 z M 210.63107,237.59412 L 212.68778,237.65518 L 212.66047,230.73686 C 212.62902,222.77196 212.17161,220.93091 209.83361,219.35891 C 207.87167,218.03977 203.47687,217.84269 200.8159,218.95451 C 199.11291,219.66607 198.79717,220.35331 199.59437,221.61332 C 199.95471,222.18284 200.27006,222.20516 201.30349,221.7343 C 203.34667,220.80337 206.72884,221.00514 207.84846,222.12476 C 209.78887,224.06517 208.89768,225.50732 205.75217,225.51702 C 203.35904,225.5244 199.31991,227.62762 198.44327,229.32286 C 196.88075,232.34445 197.87039,235.87314 200.68534,237.31723 C 201.92981,237.95565 202.979,238.07018 205.4288,237.83501 C 207.15886,237.66894 209.49988,237.56054 210.63107,237.59412 z M 202.31068,234.11538 C 200.65348,231.7494 201.96202,229.15072 205.18684,228.40354 C 208.80201,227.56591 208.81632,227.57639 208.81632,231.06048 C 208.81632,234.64319 208.31079,235.19093 205.00413,235.19093 C 203.54787,235.19093 202.87615,234.92269 202.31068,234.11538 z M 39.810518,223.69754 L 39.682108,209.7845 L 37.867358,209.6343 L 36.052618,209.48411 L 36.052618,223.54734 L 36.052618,237.61059 L 37.995768,237.61059 L 39.938918,237.61059 L 39.810518,223.69754 z M 47.666988,230.42907 C 47.906718,223.55366 47.921498,223.47875 49.266748,222.32321 C 50.900528,220.91984 52.956008,220.82468 54.509408,222.08051 C 55.594448,222.95771 55.664018,223.36506 55.893828,230.18637 L 56.135798,237.36862 L 57.950538,237.51882 L 59.765278,237.66901 L 59.765278,230.60724 C 59.765278,223.16299 59.364178,221.2477 57.447798,219.54114 C 55.233178,217.56899 50.595578,217.69044 48.331488,219.77987 C 47.303238,220.72879 47.301908,220.72847 46.984068,219.46209 C 46.711828,218.37743 46.441298,218.21617 45.109738,218.34487 C 43.700908,218.48103 43.556108,218.64419 43.580448,220.06805 C 43.595238,220.93308 43.649678,225.24717 43.701428,229.65492 L 43.795528,237.66901 L 45.610278,237.51882 L 47.425018,237.36862 L 47.666988,230.42907 z M 96.133688,231.03737 L 96.302148,224.46416 L 97.882558,223.0525 C 98.751788,222.27608 100.00396,221.64083 100.66517,221.64083 C 101.71256,221.64083 101.86736,221.4264 101.86736,219.97563 C 101.86736,219.05977 101.65918,218.18176 101.40473,218.02451 C 100.69578,217.58635 97.373628,219.12649 96.433888,220.32897 L 95.597768,221.39887 L 95.587008,219.79542 C 95.576838,218.27974 95.490178,218.20028 94.003468,218.34363 L 92.430688,218.49527 L 92.298378,227.43245 C 92.225618,232.34789 92.273218,236.64883 92.404178,236.9901 C 92.535128,237.33137 93.389938,237.61059 94.303748,237.61059 L 95.965218,237.61059 L 96.133688,231.03737 z M 108.15848,230.9008 C 108.15848,224.87635 108.25948,224.06262 109.14731,222.93392 C 110.43297,221.29947 113.06257,220.77094 114.66969,221.82397 C 116.33227,222.91334 116.86344,225.36252 116.86655,231.9536 L 116.86925,237.66901 L 118.684,237.51882 L 120.49874,237.36862 L 120.49874,230.83554 C 120.49874,223.46976 120.28631,222.32531 118.53205,220.24049 C 116.2759,217.5592 112.0203,217.32485 108.98224,219.71458 L 107.74392,220.68865 L 107.58825,219.59196 C 107.46857,218.74881 107.06899,218.46022 105.8598,218.34363 L 104.28702,218.19198 L 104.28702,227.90129 L 104.28702,237.61059 L 106.22275,237.61059 L 108.15848,237.61059 L 108.15848,230.9008 z M 155.82578,227.93195 L 155.82578,218.49527 L 154.01103,218.34508 L 152.19629,218.19488 L 152.19629,227.93195 L 152.19629,237.66901 L 154.01103,237.51882 L 155.82578,237.36862 L 155.82578,227.93195 z M 183.16793,230.48414 C 183.38306,224.3633 183.52046,223.48931 184.40669,222.60476 C 185.90038,221.1139 188.48638,220.84831 189.95416,222.03501 C 191.10943,222.96905 191.16157,223.26405 191.39477,230.18637 L 191.63674,237.36862 L 193.45149,237.51882 L 195.26623,237.66901 L 195.26623,230.60724 C 195.26623,223.16299 194.86513,221.2477 192.94874,219.54114 C 190.73413,217.56899 186.09653,217.69044 183.83243,219.77987 C 182.80418,220.72879 182.80285,220.72847 182.48501,219.46209 C 182.21278,218.37743 181.94224,218.21617 180.61068,218.34487 C 179.26319,218.4751 179.05857,218.67373 179.08476,219.82609 C 179.10139,220.55803 179.15584,224.87212 179.20574,229.41296 L 179.29648,237.66901 L 181.11122,237.51882 L 182.92597,237.36862 L 183.16793,230.48414 z M 219.94676,223.54734 L 219.94676,209.48411 L 218.13201,209.6343 L 216.31727,209.7845 L 216.18886,223.69754 L 216.06046,237.61059 L 218.00361,237.61059 L 219.94676,237.61059 L 219.94676,223.54734 z M 155.97597,214.50284 C 155.83393,212.78664 155.72723,212.67994 154.01103,212.53789 L 152.19629,212.3877 L 152.19629,214.35264 L 152.19629,216.31758 L 154.16123,216.31758 L 156.12617,216.31758 L 155.97597,214.50284 z M 110.17925,196.71584 C 114.4466,194.88583 116.63972,192.94797 118.33064,189.51322 C 119.60518,186.92427 119.90808,185.71087 119.94325,183.05312 C 120.02978,176.51456 117.33055,172.18846 110.33984,167.66156 C 108.20852,166.28141 106.06246,164.701 105.57081,164.14955 C 104.5144,162.96462 104.31679,160.10199 105.21656,159.01783 C 106.71933,157.20709 111.46128,156.99028 114.61555,158.58807 C 115.37223,158.97137 116.07311,159.2032 116.17306,159.10325 C 116.51424,158.76207 118.2951,148.91663 118.07891,148.56682 C 117.51139,147.64856 111.49769,146.43655 107.43258,146.42114 C 103.73377,146.40712 102.66964,146.59461 100.37372,147.66484 C 97.085048,149.19782 94.645638,151.55348 93.104148,154.68483 C 91.479548,157.98499 91.449618,164.30558 93.044378,167.30602 C 94.665188,170.35546 96.828958,172.60217 100.88396,175.4461 C 105.46104,178.65619 106.54778,179.82804 106.94502,181.98187 C 107.37579,184.31745 106.1441,185.79034 103.3016,186.33879 C 100.72949,186.83507 67.508198,186.9477 67.508198,186.46015 C 67.508198,185.96104 127.71593,78.89418 128.00062,78.88701 C 128.13422,78.88366 141.25842,102.0189 157.16552,130.29868 C 173.07262,158.57845 186.74164,182.85974 187.54111,184.25709 L 188.99469,186.79773 L 173.25712,186.79773 L 157.51954,186.79773 L 157.51954,167.19849 L 157.51954,147.59924 L 151.71235,147.59924 L 145.90517,147.59924 L 145.90517,172.7637 L 145.90517,197.92817 L 176.92859,197.92817 C 201.55036,197.92817 207.9034,197.80334 207.71641,197.32325 C 207.58683,196.99055 203.66014,189.87593 198.99043,181.51299 L 190.50004,166.30763 L 192.67173,161.98356 C 195.18389,156.98153 197.72999,149.6209 198.98652,143.72779 C 199.66697,140.53649 199.86358,137.44467 199.86358,129.93573 C 199.86358,121.57063 199.71094,119.57533 198.73884,115.23363 C 195.60822,101.25135 189.29348,89.53292 179.53844,79.6029 C 168.06776,67.92648 153.4816,60.70556 136.95243,58.52058 C 131.15468,57.75418 119.40278,58.21929 113.7237,59.43991 C 82.174488,66.22087 59.326538,91.91342 56.371888,123.93207 C 55.226018,136.34955 57.578788,149.16425 63.191988,161.0787 C 65.176428,165.29083 65.466688,166.25485 65.013348,167.12785 C 64.716748,167.69903 60.919558,174.49404 56.575148,182.22787 C 52.230738,189.96171 48.531128,196.6675 48.353788,197.12964 C 48.049458,197.92271 49.712778,197.96193 77.973938,197.82805 C 106.69632,197.69198 108.00872,197.64666 110.17925,196.71584 z M 160.28804,112.17561 C 147.33791,88.96634 136.80999,69.90929 136.89267,69.82662 C 137.2339,69.48538 144.98361,71.3564 148.80876,72.70354 C 167.39271,79.24838 182.16642,95.17676 187.23706,114.13528 C 189.64364,123.1332 190.01675,133.29088 188.25463,141.83755 C 187.42919,145.84109 184.63382,154.37429 184.14776,154.37429 C 183.97504,154.37429 173.23816,135.38488 160.28804,112.17561 z M 71.682968,152.2688 C 70.729098,149.98585 69.238628,144.89764 68.401458,141.06616 C 67.433488,136.63612 67.556908,123.13047 68.610158,118.22861 C 73.800568,94.07236 91.712448,75.85479 115.40196,70.63825 C 117.65582,70.14194 119.55227,69.78825 119.61629,69.85227 C 119.68031,69.91629 109.38167,88.36107 96.730418,110.84066 C 84.079178,133.32027 73.440588,152.25089 73.089118,152.90872 L 72.450088,154.10477 L 71.682968,152.2688 z M 137.67833,172.7637 L 137.67833,147.59924 L 131.87114,147.59924 L 126.06396,147.59924 L 126.06396,172.7637 L 126.06396,197.92817 L 131.87114,197.92817 L 137.67833,197.92817 L 137.67833,172.7637 z "
		 style="fill:#0068a6;fill-opacity:1" />
	</g>
  </g>
</svg>
