<?xml version="1.0" encoding="UTF-8" standalone="no"?>
<!-- Created with Inkscape (http://www.inkscape.org/) -->
<svg
   xmlns:dc="http://purl.org/dc/elements/1.1/"
   xmlns:cc="http://creativecommons.org/ns#"
   xmlns:rdf="http://www.w3.org/1999/02/22-rdf-syntax-ns#"
   xmlns:svg="http://www.w3.org/2000/svg"
   xmlns="http://www.w3.org/2000/svg"
   xmlns:xlink="http://www.w3.org/1999/xlink"
   xmlns:sodipodi="http://sodipodi.sourceforge.net/DTD/sodipodi-0.dtd"
   xmlns:inkscape="http://www.inkscape.org/namespaces/inkscape"
   id="svg5491"
   sodipodi:version="0.32"
   inkscape:version="0.46"
   width="48"
   height="48"
   version="1.0"
   sodipodi:docname="WorldPad.svg"
   inkscape:output_extension="org.inkscape.output.svg.inkscape">
  <metadata
	 id="metadata5496">
	<rdf:RDF>
	  <cc:Work
		 rdf:about="">
		<dc:format>image/svg+xml</dc:format>
		<dc:type
		   rdf:resource="http://purl.org/dc/dcmitype/StillImage" />
	  </cc:Work>
	</rdf:RDF>
  </metadata>
  <defs
	 id="defs5494">
	<linearGradient
	   id="linearGradient6158">
	  <stop
		 style="stop-color:#ffff06;stop-opacity:1;"
		 offset="0"
		 id="stop6160" />
	  <stop
		 style="stop-color:#ffffb1;stop-opacity:1;"
		 offset="1"
		 id="stop6162" />
	</linearGradient>
	<linearGradient
	   id="linearGradient6110">
	  <stop
		 style="stop-color:#37d2cd;stop-opacity:1;"
		 offset="0"
		 id="stop6112" />
	  <stop
		 style="stop-color:#616bc6;stop-opacity:1;"
		 offset="1"
		 id="stop6114" />
	</linearGradient>
	<linearGradient
	   id="linearGradient6076">
	  <stop
		 style="stop-color:#168a00;stop-opacity:1;"
		 offset="0"
		 id="stop6078" />
	  <stop
		 style="stop-color:#76c866;stop-opacity:1;"
		 offset="1"
		 id="stop6080" />
	</linearGradient>
	<inkscape:perspective
	   sodipodi:type="inkscape:persp3d"
	   inkscape:vp_x="0 : 526.18109 : 1"
	   inkscape:vp_y="0 : 1000 : 0"
	   inkscape:vp_z="744.09448 : 526.18109 : 1"
	   inkscape:persp3d-origin="372.04724 : 350.78739 : 1"
	   id="perspective5498" />
	<linearGradient
	   inkscape:collect="always"
	   xlink:href="#linearGradient6076"
	   id="linearGradient6082"
	   x1="15.543086"
	   y1="8.3588696"
	   x2="36.510223"
	   y2="8.3588696"
	   gradientUnits="userSpaceOnUse" />
	<linearGradient
	   inkscape:collect="always"
	   xlink:href="#linearGradient6076"
	   id="linearGradient6106"
	   x1="-10.733829"
	   y1="15.223563"
	   x2="11.661283"
	   y2="15.223563"
	   gradientUnits="userSpaceOnUse" />
	<radialGradient
	   inkscape:collect="always"
	   xlink:href="#linearGradient6110"
	   id="radialGradient6118"
	   cx="10.605502"
	   cy="4.8686552"
	   fx="10.605502"
	   fy="4.8686552"
	   r="23.814894"
	   gradientTransform="matrix(1,0,0,0.9645045,0,0.1728152)"
	   gradientUnits="userSpaceOnUse" />
	<linearGradient
	   inkscape:collect="always"
	   xlink:href="#linearGradient6158"
	   id="linearGradient6164"
	   x1="27.775303"
	   y1="39.44939"
	   x2="28.775303"
	   y2="27.012148"
	   gradientUnits="userSpaceOnUse" />
	<linearGradient
	   inkscape:collect="always"
	   xlink:href="#linearGradient6158"
	   id="linearGradient6188"
	   gradientUnits="userSpaceOnUse"
	   gradientTransform="matrix(1.0101908,0.1883636,-0.4270147,1.0082524,9.9115231,-2.185725)"
	   x1="27.775303"
	   y1="39.44939"
	   x2="28.775303"
	   y2="27.012148" />
	<linearGradient
	   inkscape:collect="always"
	   xlink:href="#linearGradient6076"
	   id="linearGradient11634"
	   x1="-4.9877205"
	   y1="-12.922203"
	   x2="27.680019"
	   y2="-12.922203"
	   gradientUnits="userSpaceOnUse" />
	<linearGradient
	   inkscape:collect="always"
	   xlink:href="#linearGradient6076"
	   id="linearGradient11644"
	   x1="3.125"
	   y1="-1.5629799"
	   x2="11.782"
	   y2="-1.5629799"
	   gradientUnits="userSpaceOnUse"
	   gradientTransform="translate(-3.125,-2.375)" />
  </defs>
  <sodipodi:namedview
	 inkscape:window-height="1148"
	 inkscape:window-width="1592"
	 inkscape:pageshadow="2"
	 inkscape:pageopacity="0.0"
	 guidetolerance="10.0"
	 gridtolerance="10.0"
	 objecttolerance="10.0"
	 borderopacity="1.0"
	 bordercolor="#666666"
	 pagecolor="#ffffff"
	 id="base"
	 showgrid="false"
	 showguides="true"
	 inkscape:guide-bbox="true"
	 inkscape:zoom="8"
	 inkscape:cx="-5.437721"
	 inkscape:cy="34.911035"
	 inkscape:window-x="0"
	 inkscape:window-y="24"
	 inkscape:current-layer="layer3" />
  <g
	 inkscape:groupmode="layer"
	 id="layer2"
	 inkscape:label="Back"
	 style="display:none"
	 sodipodi:insensitive="true">
	<image
	   xlink:href="WorldPad.ico"
	   sodipodi:absref="/home/giffinj/projects/FieldWorks/Src/WorldPadGTK/WorldPad.ico"
	   width="48"
	   height="48"
	   id="image5500"
	   x="-2.6255003e-07"
	   y="0.097166158" />
  </g>
  <g
	 inkscape:groupmode="layer"
	 id="layer7"
	 inkscape:label="Paper Shadow"
	 style="display:inline"
	 sodipodi:insensitive="true">
	<path
	   style="fill:#000000;fill-opacity:0.23008848;fill-rule:evenodd;stroke:none;stroke-width:1px;stroke-linecap:butt;stroke-linejoin:miter;stroke-opacity:1;display:inline"
	   d="M 44.583702,29.545275 L 26.802326,48.006813 L -1.278646,34.112077 L 16.211232,17.496691 L 44.583702,29.545275 z"
	   id="path6248" />
	<path
	   style="fill:#000000;fill-opacity:0.23008848;fill-rule:evenodd;stroke:none;stroke-width:1.31634414px;stroke-linecap:butt;stroke-linejoin:miter;stroke-opacity:1;display:inline"
	   d="M 21.616368,40.269694 L 31.210955,29.897779"
	   id="path6250" />
	<path
	   style="fill:#000000;fill-opacity:0.23008848;fill-rule:evenodd;stroke:none;stroke-width:1.30168521px;stroke-linecap:butt;stroke-linejoin:miter;stroke-opacity:1;display:inline"
	   d="M 18.791225,37.653541 L 27.623143,28.530126"
	   id="path6252" />
	<path
	   style="fill:#000000;fill-opacity:0.23008848;fill-rule:evenodd;stroke:none;stroke-width:1.28763771px;stroke-linecap:butt;stroke-linejoin:miter;stroke-opacity:1;display:inline"
	   d="M 15.419984,35.201822 L 23.901267,26.609375"
	   id="path6254" />
	<a
	   style="fill:#000000;fill-opacity:0.23008848;stroke:none;display:inline"
	   id="a6256"
	   transform="translate(-1.8616419,4.3792827)">
	  <path
		 id="path6258"
		 d="M 46.08393,31.93656 L 20.238001,47.201084 L -2.1958792,27.902249 L 22.567246,14.444205 L 46.08393,31.93656 z"
		 style="fill:#000000;fill-opacity:0.23008848;fill-rule:evenodd;stroke:none;stroke-width:1.0483135px;stroke-linecap:butt;stroke-linejoin:miter;stroke-opacity:1;display:inline" />
	</a>
	<path
	   style="fill:#000000;fill-opacity:0.23008848;fill-rule:evenodd;stroke:none;stroke-width:1.37994134px;stroke-linecap:butt;stroke-linejoin:miter;stroke-opacity:1;display:inline"
	   d="M 16.441416,42.802553 L 30.562738,34.152318"
	   id="path6260" />
	<path
	   style="fill:#000000;fill-opacity:0.23008848;fill-rule:evenodd;stroke:none;stroke-width:1.36457419px;stroke-linecap:butt;stroke-linejoin:miter;stroke-opacity:1;display:inline"
	   d="M 14.704618,39.632657 L 27.522372,32.097564"
	   id="path6262" />
	<path
	   style="fill:#000000;fill-opacity:0.23008848;fill-rule:evenodd;stroke:none;stroke-width:1.34984803px;stroke-linecap:butt;stroke-linejoin:miter;stroke-opacity:1;display:inline"
	   d="M 12.345942,36.525686 L 24.582756,29.459898"
	   id="path6264" />
  </g>
  <g
	 inkscape:groupmode="layer"
	 id="layer4"
	 inkscape:label="Paper"
	 style="display:inline"
	 sodipodi:insensitive="true">
	<path
	   style="fill:url(#linearGradient6164);fill-opacity:1;fill-rule:evenodd;stroke:#000000;stroke-width:1px;stroke-linecap:butt;stroke-linejoin:miter;stroke-opacity:1"
	   d="M 46.445344,25.165992 L 28.663968,43.62753 L 0.58299595,29.732794 L 18.072874,13.117409 L 46.445344,25.165992 z"
	   id="path6156" />
	<path
	   style="fill:none;fill-rule:evenodd;stroke:#000000;stroke-width:1.31634414px;stroke-linecap:butt;stroke-linejoin:miter;stroke-opacity:1"
	   d="M 23.47801,35.890411 L 33.072597,25.518496"
	   id="path6166" />
	<path
	   style="fill:none;fill-rule:evenodd;stroke:#000000;stroke-width:1.30168521px;stroke-linecap:butt;stroke-linejoin:miter;stroke-opacity:1"
	   d="M 20.652867,33.274258 L 29.484785,24.150843"
	   id="path6168" />
	<path
	   style="fill:none;fill-rule:evenodd;stroke:#000000;stroke-width:1.28763771px;stroke-linecap:butt;stroke-linejoin:miter;stroke-opacity:1"
	   d="M 17.281626,30.822539 L 25.762909,22.230093"
	   id="path6170" />
  </g>
  <g
	 inkscape:groupmode="layer"
	 id="layer5"
	 inkscape:label="Paper 2"
	 style="display:inline"
	 sodipodi:insensitive="true">
	<a
	   id="a6183">
	  <path
		 id="path6173"
		 d="M 46.08393,31.93656 L 20.238001,47.201084 L -2.1958792,27.902249 L 22.567246,14.444205 L 46.08393,31.93656 z"
		 style="fill:url(#linearGradient6188);fill-opacity:1;fill-rule:evenodd;stroke:#000000;stroke-width:1.0483135px;stroke-linecap:butt;stroke-linejoin:miter;stroke-opacity:1;display:inline" />
	</a>
	<path
	   style="fill:none;fill-rule:evenodd;stroke:#000000;stroke-width:1.37994134px;stroke-linecap:butt;stroke-linejoin:miter;stroke-opacity:1;display:inline"
	   d="M 18.303058,38.42327 L 32.42438,29.773035"
	   id="path6175" />
	<path
	   style="fill:none;fill-rule:evenodd;stroke:#000000;stroke-width:1.36457419px;stroke-linecap:butt;stroke-linejoin:miter;stroke-opacity:1;display:inline"
	   d="M 16.56626,35.253374 L 29.384014,27.718281"
	   id="path6177" />
	<path
	   style="fill:none;fill-rule:evenodd;stroke:#000000;stroke-width:1.34984803px;stroke-linecap:butt;stroke-linejoin:miter;stroke-opacity:1;display:inline"
	   d="M 14.207584,32.146403 L 26.444398,25.080615"
	   id="path6179" />
  </g>
  <g
	 inkscape:groupmode="layer"
	 id="layer6"
	 inkscape:label="Pencil Shadow"
	 style="display:inline">
	<path
	   sodipodi:type="arc"
	   style="fill:#000000;fill-opacity:0.2964602;fill-rule:nonzero;stroke:none;stroke-width:0.91591263;stroke-miterlimit:4;stroke-dasharray:none;stroke-opacity:0.16470588;display:inline"
	   id="path6215"
	   sodipodi:cx="45.716599"
	   sodipodi:cy="5.1497974"
	   sodipodi:rx="3.6437247"
	   sodipodi:ry="4.0809717"
	   d="M 49.360323,5.1497974 A 3.6437247,4.0809717 0 1 1 42.072874,5.1497974 A 3.6437247,4.0809717 0 1 1 49.360323,5.1497974 z"
	   transform="matrix(0.997226,0.3989537,-0.4550745,1.0938959,8.876345,9.8946831)"
	   inkscape:transform-center-x="-35.245055"
	   inkscape:transform-center-y="-1.0752734" />
	<path
	   style="fill:#000000;fill-opacity:0.2964602;fill-rule:evenodd;stroke:none;stroke-width:1px;stroke-linecap:butt;stroke-linejoin:miter;stroke-opacity:0.16470588;display:inline"
	   d="M 52.113082,29.067702 C 43.454954,29.053698 27.295722,29.664384 27.295722,29.664384 L 17.584529,34.854471 L 30.376652,38.170492 L 51.472401,38.195889 L 51.06503,37.913895"
	   id="path6219"
	   sodipodi:nodetypes="cccccc"
	   inkscape:transform-center-x="-17.971276"
	   inkscape:transform-center-y="-1.2104284" />
	<path
	   style="fill:#000000;fill-opacity:0.2964602;fill-rule:evenodd;stroke:none;stroke-width:1px;stroke-linecap:butt;stroke-linejoin:miter;stroke-opacity:0.16470588;display:inline"
	   d="M 21.954445,32.525802 L 23.328577,36.466719"
	   id="path6221"
	   inkscape:transform-center-x="-5.763981"
	   inkscape:transform-center-y="-0.3458445" />
	<path
	   style="fill:#000000;fill-opacity:0.2964602;fill-rule:evenodd;stroke:none;stroke-width:1px;stroke-linecap:butt;stroke-linejoin:miter;stroke-opacity:0.16470588;display:inline"
	   d="M 27.638001,29.739088 L 29.043374,31.893903 L 26.731941,34.396013 L 30.721335,38.107804 L 30.514045,38.172895"
	   id="path6223"
	   inkscape:transform-center-x="-11.849108"
	   inkscape:transform-center-y="-0.8861135" />
	<path
	   style="fill:#000000;fill-opacity:0.2964602;fill-rule:evenodd;stroke:none;stroke-width:1px;stroke-linecap:butt;stroke-linejoin:miter;stroke-opacity:0.16470588;display:inline"
	   d="M 29.180766,31.896306 L 48.690494,32.237549"
	   id="path6225"
	   inkscape:transform-center-x="-22.058099"
	   inkscape:transform-center-y="-2.7751776" />
	<path
	   style="fill:#000000;fill-opacity:0.2964602;fill-rule:evenodd;stroke:none;stroke-width:1.0837698px;stroke-linecap:butt;stroke-linejoin:miter;stroke-opacity:0.16470588;display:inline"
	   d="M 27.470919,34.821241 C 28.513731,34.894822 48.510906,35.189249 48.510906,35.189249"
	   id="path6227"
	   inkscape:transform-center-x="-21.113382"
	   inkscape:transform-center-y="0.16314071" />
  </g>
  <g
	 inkscape:groupmode="layer"
	 id="layer1"
	 inkscape:label="World"
	 style="display:inline"
	 sodipodi:insensitive="true">
	<path
	   sodipodi:type="arc"
	   style="fill:none;fill-opacity:1;stroke:#000000;stroke-opacity:1"
	   id="path5552"
	   sodipodi:cx="14.137651"
	   sodipodi:cy="18.364372"
	   sodipodi:rx="17.441296"
	   sodipodi:ry="20.890688"
	   d="M 31.578947,18.364372 A 17.441296,20.890688 0 1 1 -3.3036442,18.364372 A 17.441296,20.890688 0 1 1 31.578947,18.364372 z"
	   transform="matrix(1.4625593,0,0,1.1303694,-9.0172344,-15.900225)" />
	<path
	   style="fill:none;fill-opacity:1;fill-rule:evenodd;stroke:#000000;stroke-width:1px;stroke-linecap:butt;stroke-linejoin:miter;stroke-opacity:1"
	   d="M 30.995953,20.647773 C 30.581392,20.647773 30.190697,20.640791 29.829961,20.550607 C 29.371291,20.43594 29.085709,20.32423 28.566804,20.064777 C 28.22994,19.896345 27.858275,19.856262 27.497978,19.676113 C 27.10953,19.48189 26.8428,19.209022 26.429152,18.898785 C 26.021497,18.593044 25.706271,18.370237 25.457492,18.121458 C 25.214577,17.878543 25.117411,17.489879 24.874496,17.246964 C 24.631581,17.004049 24.534415,16.615385 24.2915,16.37247 C 24.177616,16.258586 23.861913,15.57468 23.708504,15.497976 C 23.342382,15.314915 22.817183,15.092484 22.445346,14.720648 C 22.218406,14.493708 21.799125,14.298043 21.473686,14.623482 C 21.195602,14.901566 20.960862,15.067477 20.40486,15.206478 C 19.981754,15.312254 19.530366,15.486722 19.530366,14.817814 C 19.530366,14.378482 19.424439,13.784032 19.530366,13.360324 C 19.60702,13.053708 19.625299,12.397597 19.724698,12 C 19.844315,11.521532 20.113362,11.279943 20.113362,10.834008 C 20.113362,10.376253 20.084649,9.902088 19.91903,9.57085 C 19.790955,9.314701 19.532175,8.891141 19.141702,8.793522 C 18.764449,8.699209 18.456021,8.593671 18.170042,8.307692 C 17.926844,8.064494 17.589888,7.924711 17.392715,7.530365 C 17.289157,7.323249 17.008491,6.757477 16.809719,6.558705 C 16.510089,6.259075 16.315254,6.068557 15.935225,5.878543 C 15.800036,5.810949 15.060731,5.513596 15.060731,5.295547 C 15.060731,4.958973 14.922811,4.170308 15.157897,3.935223 C 15.408123,3.684996 15.54119,3.454764 15.838059,3.157895 C 16.103384,2.89257 16.246504,2.742856 16.518221,2.380567 C 16.719017,2.112839 16.988466,1.618824 17.295549,1.311741 C 17.302589,1.3047 18.444068,0.59663504 18.655872,1.020243 C 18.784129,1.276756 18.949384,1.702418 19.238868,1.991903 C 19.503344,2.256379 19.767452,2.617653 20.113362,2.963563 C 20.335321,3.185522 20.706242,3.398339 21.279354,3.255061 C 21.786193,3.128351 22.124099,3.187644 22.445346,2.866397 C 22.62373,2.688013 23.028342,2.305302 23.028342,1.991903 C 23.028342,1.478897 23.028342,0.65527204 23.028342,0.43724704 C 23.356393,0.51926004 23.080734,-0.29530596 23.31984,-0.53441296 C 23.629902,-0.84447396 23.941478,-1.029903 24.2915,-1.117409 C 24.576665,-1.1887 24.955944,-1.684687 25.165994,-1.894737 C 25.536216,-2.264959 25.819597,-2.367287 26.23482,-2.574899 C 26.841781,-2.878379 27.66656,-3.047854 28.080974,-3.255061 C 28.680734,-3.554941 29.720373,-3.66491 30.412957,-3.838057 C 30.953097,-3.973091 31.70677,-3.838057 32.259111,-3.838057 C 32.744941,-3.838057 33.230771,-3.838057 33.716601,-3.838057 C 34.072876,-3.838057 34.429152,-3.838057 34.785427,-3.838057"
	   id="path6063" />
	<path
	   style="fill:url(#linearGradient6082);fill-opacity:1;fill-rule:nonzero;stroke:#000000;stroke-width:0.09716599;stroke-opacity:1"
	   d="M 28.836341,19.600879 C 27.614227,19.126614 27.500531,19.062242 26.551574,18.307305 C 26.013098,17.878923 25.718026,17.52287 24.996918,16.431346 C 24.365847,15.476105 24.025596,15.050378 23.827503,14.968146 C 23.673845,14.904357 23.282492,14.656623 22.957833,14.417623 C 22.199588,13.859439 21.731343,13.785851 21.240486,14.147738 C 20.862135,14.426681 20.336092,14.691499 20.160341,14.691499 C 19.941641,14.691499 20.117188,12.608741 20.405418,11.783872 C 20.544058,11.387105 20.65749,10.859414 20.65749,10.611224 C 20.65749,9.4984565 20.087025,8.5583658 19.223299,8.2477747 C 18.578354,8.015856 18.026104,7.529343 17.648692,6.8606048 C 17.276351,6.2008487 16.696363,5.6472464 16.070301,5.354015 C 15.613752,5.140177 15.604873,5.1275133 15.605617,4.6910835 C 15.606313,4.2820507 15.65671,4.1895826 16.230323,3.5449057 C 16.573494,3.1592209 16.989736,2.6467655 17.155305,2.4061193 C 17.451135,1.9761452 18.009845,1.4769238 18.195224,1.4769238 C 18.247084,1.4769238 18.357568,1.6190291 18.440746,1.7927133 C 18.636908,2.2023234 19.826538,3.484689 20.179858,3.667398 C 20.719617,3.9465161 22.118396,3.7728309 22.670879,3.3580885 C 23.338082,2.8572309 23.508197,2.5121439 23.591691,1.490187 C 23.736743,-0.28521396 23.719253,-0.23545696 24.293714,-0.50721996 C 24.572535,-0.63912196 24.994357,-0.94953896 25.231099,-1.197033 C 25.747793,-1.737194 26.418582,-2.093316 27.897646,-2.612706 C 29.712866,-3.250139 30.564194,-3.366523 32.89481,-3.295855 L 34.881117,-3.235627 L 35.110813,-2.652631 C 35.471962,-1.735988 35.975935,0.17902604 36.214638,1.5417219 C 36.476421,3.0361941 36.528256,6.1044882 36.316131,7.5497983 C 35.656961,12.041028 33.855366,15.944533 30.87864,19.331175 C 30.538086,19.718624 30.186866,20.0339 30.098148,20.031787 C 30.00943,20.029677 29.441617,19.835765 28.83634,19.600877 L 28.836341,19.600879 z"
	   id="path6074" />
	<path
	   style="fill:none;fill-rule:evenodd;stroke:#000000;stroke-width:1px;stroke-linecap:butt;stroke-linejoin:miter;stroke-opacity:1"
	   d="M 1.1659919,26.040486 C 1.3814087,25.791553 1.7918809,25.317431 2.0404858,25.068826 C 2.2599943,24.849317 2.8153077,24.681415 3.0121457,24.582996 C 3.3719258,24.403106 3.6409546,24.268592 3.9838057,24.097166 C 4.3602412,23.908948 4.4748608,23.608723 4.8582996,23.417004 C 5.1384944,23.276907 5.3532693,22.824868 5.5384615,22.639676 C 5.8353305,22.342807 5.968397,22.112575 6.2186235,21.862348 C 6.5478489,21.533123 7.0841585,21.429581 7.3846154,21.279352 C 7.7232315,21.110044 8.2875174,21.182186 8.7449393,21.182186 C 9.220614,21.182186 9.3733285,20.799902 9.5222672,20.502024 C 9.6936899,20.159179 9.8581672,19.830224 10.008097,19.530364 C 10.184309,19.17794 10.202429,18.819028 10.202429,18.267206 C 10.202429,17.789659 10.215634,17.242726 10.299595,16.906883 C 10.400998,16.501271 10.786414,16.420558 11.174089,16.226721 C 11.76244,15.932545 11.810011,15.917853 11.951417,15.352227 C 12.054077,14.941585 12.145749,14.433966 12.145749,13.991903 C 12.145749,13.382497 12.044857,13.207124 11.854251,12.825911 C 11.669821,12.457051 11.499132,12.115674 11.271255,11.659919 C 11.017943,11.153296 10.638352,10.832684 10.396761,10.591093 C 10.015827,10.210159 9.2474484,10.162186 8.7449393,9.9109312 C 8.2043837,9.6406534 7.768042,9.6667068 7.1902834,9.5222672 C 6.6965313,9.3988292 6.2858928,9.4251012 5.7327935,9.4251012 C 5.2599736,9.4251012 4.5269255,9.1479257 4.0809717,9.0364372 C 3.7706517,8.9588572 3.3795244,8.6264879 3.2064777,8.4534413 C 2.8466977,8.0936612 3.0657414,7.666088 3.2064777,7.3846154 C 3.4255093,6.9465523 3.4824638,6.8171314 3.7894737,6.5101215 C 4.1396583,6.1599368 4.3412615,6.2462902 4.4696356,5.7327935 C 4.5761277,5.3068254 3.8606032,5.118997 3.5951417,5.0526316 C 3.1790156,4.9486 2.9155526,4.7611336 2.4291498,4.7611336 C 2.0155186,4.7611336 1.536506,4.5622641 1.1659919,4.4696356 C 0.74228406,4.3637087 0.14783421,4.4696356 -0.29149798,4.4696356 C -0.84499038,4.4696356 -1.1373699,4.5596461 -1.5546559,4.6639676 C -2.2005071,4.8254304 -2.9110624,5.1101477 -3.5951417,5.2469636 C -4.1545816,5.3588515 -4.7953104,5.3769652 -5.4412955,5.5384615 C -6.1097584,5.7055773 -6.8408705,5.748494 -7.2874494,5.9271255 C -7.6822035,6.0850271 -8.1380581,6.3950416 -8.5506073,6.7044534 C -9.035267,7.0679482 -9.1304539,7.2843001 -9.4251012,7.5789474 C -9.8400032,7.9938493 -9.6102211,8.5575163 -9.2307692,8.8421053 C -8.8604419,9.1198508 -8.7291206,9.4567386 -8.5506073,9.8137652 C -8.3032234,10.308533 -8.2907889,10.464375 -8.1619433,10.979757 C -8.0216124,11.541081 -8.3319573,11.829933 -8.5506073,12.048583 C -8.8484084,12.346384 -9.0559973,12.592776 -9.5222672,12.825911 C -9.9651947,13.047375 -10.089301,13.352343 -10.591093,13.603239 C -10.886904,13.751144 -11.085791,14.301137 -11.174089,14.477733"
	   id="path6094" />
	<path
	   style="fill:url(#radialGradient6118);fill-opacity:1;fill-rule:nonzero;stroke:#000000;stroke-width:0.09716599;stroke-opacity:1"
	   d="M 9.5971015,27.701944 C 7.2305762,27.531667 4.3448133,26.889261 2.2546815,26.067434 L 1.9733305,25.956805 L 2.2060985,25.70812 C 2.3341205,25.571344 2.9198381,25.226244 3.5076923,24.941234 C 4.6342951,24.395021 5.1954899,23.935347 6.2433717,22.70043 C 6.8566406,21.9777 7.4978157,21.68745 8.4811035,21.68745 C 9.3953218,21.68745 9.5846099,21.541823 10.1837,20.377567 C 10.680769,19.411575 10.685091,19.395413 10.74265,18.28664 C 10.774552,17.672066 10.831362,17.120121 10.868892,17.060097 C 10.906419,17.000072 11.177405,16.833406 11.471078,16.689725 C 12.161498,16.351937 12.348843,16.072775 12.549408,15.082949 C 12.793656,13.877532 12.713621,13.340313 12.103782,12.091746 C 11.707379,11.28016 11.467586,10.926855 11.001804,10.468111 C 10.443214,9.917962 10.337527,9.8591756 9.2890688,9.5154246 C 7.8916664,9.0572705 7.4818805,8.9723105 6.13903,8.8623526 C 4.9209571,8.7626136 4.222491,8.5770285 3.8031479,8.2417058 L 3.5156094,8.011776 L 3.6999838,7.6029006 C 3.801394,7.3780196 4.07249,7.028429 4.3024227,6.8260342 C 5.438022,5.82644 5.1977412,4.962304 3.6543197,4.4952028 C 3.2539938,4.3740484 2.7730212,4.254613 2.5854938,4.2297929 C 2.3979673,4.2049728 1.9712298,4.1154849 1.6371906,4.030932 C 0.67835563,3.7882327 -0.85052794,3.9051079 -2.3708502,4.3373362 C -3.0388664,4.527252 -4.0008097,4.7490596 -4.508502,4.8302389 C -7.2983582,5.2763318 -7.7612444,5.4329032 -8.9005428,6.3158194 C -9.7371906,6.9641926 -10.14413,7.5342732 -10.14413,8.057962 C -10.14413,8.5620504 -10.040396,8.7907315 -9.6033066,9.2502032 C -9.248708,9.6229611 -8.8023255,10.518281 -8.7208946,11.020082 C -8.6540794,11.431813 -8.8951142,11.745118 -9.6916168,12.281841 C -10.347833,12.724033 -11.126012,13.326246 -11.231686,13.473661 C -11.319446,13.596082 -11.626742,12.880572 -12.097481,11.457747 C -13.828437,6.2258787 -13.40479,0.42655952 -10.924749,-4.5959506 C -9.78048,-6.9132895 -8.422013,-8.8021236 -6.5529153,-10.674611 C -1.6369671,-15.599477 5.2359605,-18.258318 12.445202,-18.024161 C 14.434241,-17.959558 15.333658,-17.858518 17.062348,-17.505473 C 23.474798,-16.195878 29.236363,-12.428212 32.697027,-7.2814709 C 33.282928,-6.4101038 34.357895,-4.5465388 34.357895,-4.4021744 C 34.357895,-4.3582466 33.548113,-4.3504879 32.558381,-4.3849284 C 30.348962,-4.4618091 29.411495,-4.310647 27.23864,-3.5271412 C 25.70605,-2.9745087 25.059994,-2.6219652 24.547239,-2.0584792 C 24.371709,-1.8655921 24.047786,-1.6277773 23.827414,-1.5300031 C 23.199838,-1.251571 22.697976,-0.74075384 22.697976,-0.38041667 C 22.697976,-0.21394218 22.654251,-0.077731977 22.60081,-0.077731977 C 22.542141,-0.077731977 22.503644,0.33036519 22.503644,0.95222754 L 22.503644,1.982188 L 22.182656,2.303173 C 21.920891,2.5649401 21.755961,2.6373686 21.2887,2.6957498 L 20.715712,2.7673388 L 20.10616,2.1239396 C 19.770909,1.7700688 19.38788,1.2659853 19.254996,1.0037537 C 18.958008,0.41767563 18.606112,0.25404519 17.996026,0.41832665 C 17.269642,0.61391984 16.927511,0.85977895 16.434763,1.5402557 C 16.169762,1.9062334 15.6583,2.5350849 15.298183,2.9377048 C 14.543602,3.7813611 14.400952,4.1838402 14.527132,5.1133048 C 14.613153,5.7470214 14.733104,5.8911166 15.506769,6.2901035 C 16.074267,6.5827704 16.409325,6.9068102 16.734248,7.4772183 C 17.196418,8.2885718 18.015168,9.0109864 18.736829,9.2441576 C 19.458675,9.47739 19.775572,10.423799 19.414494,11.268006 C 19.125211,11.944342 18.897134,13.65318 18.974293,14.566047 C 19.029221,15.215784 19.075812,15.359586 19.30596,15.589731 C 19.474892,15.758663 19.677551,15.857491 19.855054,15.857491 C 20.312813,15.857491 21.082873,15.58866 21.508693,15.280196 L 21.905869,14.992486 L 22.277636,15.2889 C 22.482102,15.451932 22.810679,15.66794 23.007799,15.768921 C 23.280758,15.908752 23.561694,16.249031 24.186112,17.196172 C 25.040006,18.491373 25.196123,18.658932 26.393053,19.56487 C 26.915806,19.960529 27.429726,20.234835 28.228878,20.544726 L 29.338737,20.975097 L 28.447462,21.716913 C 26.679789,23.188138 25.379932,24.042144 23.419802,25.020065 C 19.157053,27.146787 14.483553,28.053538 9.5971006,27.701944 L 9.5971015,27.701944 z"
	   id="path6108" />
	<path
	   style="fill:url(#linearGradient6106);fill-opacity:1;fill-rule:nonzero;stroke:#000000;stroke-width:0.09716599;stroke-opacity:1;display:inline"
	   d="M 0.36320648,25.27509 C -0.32262704,24.970708 -1.9649383,24.030291 -2.8801457,23.417891 C -4.2336738,22.512189 -5.5365454,21.414486 -6.7939861,20.120367 C -8.331498,18.53801 -9.385508,17.143559 -10.397974,15.352326 C -10.728689,14.767226 -10.729592,14.762259 -10.558302,14.468969 C -10.400351,14.198522 -10.010619,13.872766 -8.7320492,12.942511 C -8.0485506,12.445215 -7.7018565,11.969043 -7.6429836,11.446718 C -7.5497053,10.619156 -8.0321218,9.3399467 -8.7181788,8.595662 C -9.0851368,8.1975623 -9.0981231,8.1626564 -8.9690264,7.9214389 C -8.7962351,7.5985747 -7.9100988,6.873594 -7.3323556,6.5824167 C -6.948961,6.3891885 -4.445213,5.8493935 -3.9323475,5.8493935 C -3.8394967,5.8493935 -3.1211135,5.6732491 -2.3359375,5.4579613 C -0.75144874,5.0235117 0.67036275,4.8644054 1.2287524,5.0590609 C 1.4052039,5.1205728 1.8371126,5.2156488 2.1885513,5.2703425 C 2.7350711,5.3553977 3.7273671,5.620349 3.8321228,5.7091908 C 3.8502355,5.7245527 3.67944,5.9044876 3.4525768,6.1090463 C 2.9759738,6.5387921 2.4874698,7.4897867 2.4878896,7.9870454 C 2.4885172,8.7311649 3.1785882,9.3361592 4.4451634,9.7030113 C 4.8768874,9.8280552 5.4547151,9.9305411 5.7292275,9.9307558 C 7.1737244,9.9318858 9.6261046,10.630245 10.240584,11.215444 C 10.427091,11.393062 10.809128,12.005743 11.105442,12.60243 C 11.618712,13.635993 11.634194,13.69049 11.574801,14.254252 C 11.460199,15.342046 11.381804,15.508146 10.868848,15.749979 C 9.8819048,16.215273 9.7731469,16.415369 9.6799521,17.937356 C 9.6128337,19.033486 9.5830717,19.162574 9.2376087,19.856053 L 8.8672295,20.599552 L 8.1307802,20.640929 C 7.0782131,20.700059 6.3480457,21.006121 5.7425101,21.642011 C 3.9552709,23.51884 4.061109,23.430529 2.9358578,23.983875 C 2.1908327,24.350243 1.704241,24.66414 1.3669846,24.995943 C 1.0980962,25.26048 0.85761231,25.473835 0.83257166,25.47006 C 0.80753004,25.466283 0.59631838,25.378549 0.36320842,25.275092 L 0.36320648,25.27509 z"
	   id="path6098" />
	<path
	   style="fill:#000000;fill-opacity:0.23008848;fill-rule:nonzero;stroke:none;stroke-width:1;stroke-miterlimit:4;stroke-dasharray:none;stroke-opacity:0.16470588"
	   d="M 4.2961306,-11.461559 C 4.3376693,-11.503093 4.4454831,-11.507533 4.5357168,-11.471424 C 4.6354331,-11.431521 4.6058143,-11.401901 4.4601956,-11.395904 C 4.3284281,-11.390473 4.2545968,-11.42002 4.2961331,-11.461556 L 4.2961306,-11.461559 z"
	   id="path11620" />
	<path
	   style="fill:none;fill-rule:evenodd;stroke:#000000;stroke-width:1px;stroke-linecap:butt;stroke-linejoin:miter;stroke-opacity:1"
	   d="M -5.875,-11.375 C -5.1915376,-11.528796 -4.1386609,-11.013661 -3.5,-10.375 C -2.9939481,-9.8689482 -3,-9.7870902 -3,-8.8750001 C -3,-8.0568847 -2.8668409,-7.8586818 -2.625,-7.3750001 C -2.4080695,-6.941139 -1.1442913,-8.0167816 -1,-8.1250001 C -0.64632306,-8.3902578 -0.47162191,-8.9885124 -0.375,-9.3750001 C -0.25942182,-9.8373128 0.96681564,-10.545908 1.125,-10.625 C 1.6428097,-10.883905 2.758526,-10.75 3.375,-10.75 C 4.121006,-10.75 4.5180611,-10.11597 5.25,-9.7500001 C 5.7864076,-9.4817963 6.129362,-9.1228191 6.875,-8.7500001 C 7.5264168,-8.4242917 7.9404333,-8.2500001 8.75,-8.2500001 C 9.6205858,-8.2500001 9.9907616,-8.3657617 10.5,-8.8750001 C 11.06437,-9.4393704 11.568498,-9.261997 11.875,-9.8750001 C 12.107194,-10.339388 12.488904,-10.455617 12.625,-11 C 12.732067,-11.428268 13.190669,-11.815669 13.5,-12.125 C 13.85502,-12.48002 14.478316,-12.625 15,-12.625 C 16.569352,-12.625 18.316003,-11.436333 20,-10.875 C 21.034346,-10.530218 21.981914,-10.442022 22.75,-10.25 C 23.295493,-10.113627 23.476673,-9.8750001 24.25,-9.8750001 C 24.470416,-9.8750001 25.449906,-11.074906 25.5,-11.125 C 25.820465,-11.445465 26.365333,-11.653833 26.75,-11.75 C 27.331389,-11.895347 28.151384,-11.75 28.75,-11.75 C 29.044628,-11.75 28.696458,-12.339169 28.625,-12.625"
	   id="path11624" />
	<path
	   style="fill:url(#linearGradient11634);fill-opacity:1;fill-rule:nonzero;stroke:none;stroke-width:1;stroke-miterlimit:4;stroke-dasharray:none;stroke-opacity:0.16470588"
	   d="M -2.4089319,-8.2922851 C -2.4503894,-8.4469726 -2.4850757,-8.8860439 -2.4860144,-9.2680001 C -2.4872994,-9.7900776 -2.5575357,-10.05707 -2.7689707,-10.343583 C -3.1738444,-10.892218 -3.7577332,-11.353651 -4.4149907,-11.644388 C -4.7299932,-11.783726 -4.9877207,-11.915429 -4.9877207,-11.937056 C -4.9877207,-11.958689 -4.5799082,-12.287076 -4.0814707,-12.666816 C -0.76676316,-15.19216 2.9049143,-16.776919 7.3247793,-17.58994 C 9.0838606,-17.913519 14.154284,-17.914791 15.887279,-17.592091 C 20.168698,-16.794853 23.748917,-15.317361 26.808212,-13.085225 L 27.680019,-12.44913 L 27.034839,-12.35628 C 26.082018,-12.21916 25.328121,-11.81187 24.750828,-11.122358 C 24.217789,-10.485704 23.957608,-10.395434 23.336376,-10.631626 C 23.161928,-10.697953 22.362094,-10.899594 21.558968,-11.07972 C 20.689729,-11.274671 19.537388,-11.651351 18.711758,-12.010413 C 16.474879,-12.983223 15.828379,-13.166465 14.813504,-13.115341 C 14.100172,-13.079404 13.824861,-13.00295 13.402621,-12.723525 C 12.889449,-12.383929 12.762109,-12.227299 11.760423,-10.703678 C 11.491087,-10.294005 11.101343,-9.8721301 10.894319,-9.7661776 C 10.687294,-9.6602239 10.289157,-9.4094726 10.009566,-9.2089514 C 9.5855868,-8.9048789 9.3788993,-8.8443689 8.7642106,-8.8443689 C 7.8907168,-8.8443664 7.0880406,-9.2013589 5.2785468,-10.39462 C 4.1981981,-11.107054 4.0333068,-11.175401 3.1535468,-11.275489 C 1.7784306,-11.431934 1.0348931,-11.263314 0.07294934,-10.576886 C -0.57193816,-10.116705 -0.75498441,-9.9053139 -0.92990441,-9.4187439 C -1.1380732,-8.8396864 -1.8748082,-8.0110351 -2.1814682,-8.0110351 C -2.2651194,-8.0110351 -2.3674807,-8.1375976 -2.4089344,-8.2922851 L -2.4089319,-8.2922851 z"
	   id="path11626" />
	<path
	   style="fill:url(#linearGradient11644);fill-opacity:1;fill-rule:evenodd;stroke:#000000;stroke-width:1px;stroke-linecap:butt;stroke-linejoin:miter;stroke-opacity:1"
	   d="M 1.875,-5.5000001 C 2.2709209,-5.5604642 2.7441607,-6.0595804 3.375,-6.3750001 C 3.9356563,-6.6553282 4.6960522,-6.6250001 5.375,-6.6250001 C 6.1552599,-6.6250001 6.311469,-6.4385311 6.75,-6.0000001 C 7.168463,-5.5815369 7.384571,-4.9904295 7.75,-4.6250001 C 8.099841,-4.2751586 8.125,-3.6387907 8.125,-3.0000001 C 8.125,-2.3333236 8.346294,-2.110647 7.625,-1.7500001 C 6.983928,-1.4294638 6.6085518,-1.3750001 5.875,-1.3750001 C 5.3801411,-1.3750001 4.77301,-1.25 4.125,-1.25 C 3.407429,-1.25 2.9927572,-1.3768108 2.5,-1.5000001 C 1.8335487,-1.6666129 1.4514482,-1.6735519 1,-2.1250001 C 0.5825391,-2.542461 0.5,-2.7618895 0.5,-3.5000001 C 0.5,-4.4374469 0.6373546,-4.415516 1.25,-4.8750001 C 2.1654568,-5.5615926 2.5909082,-5.6818165 3,-6.5000001"
	   id="path11636" />
  </g>
  <g
	 inkscape:groupmode="layer"
	 id="layer3"
	 inkscape:label="Pencil"
	 style="display:inline"
	 sodipodi:insensitive="true">
	<path
	   sodipodi:type="arc"
	   style="fill:#e36d6d;fill-opacity:1;fill-rule:nonzero;stroke:#000000;stroke-width:0.91591263;stroke-miterlimit:4;stroke-dasharray:none;stroke-opacity:1"
	   id="path6121"
	   sodipodi:cx="45.716599"
	   sodipodi:cy="5.1497974"
	   sodipodi:rx="3.6437247"
	   sodipodi:ry="4.0809717"
	   d="M 49.360323,5.1497974 A 3.6437247,4.0809717 0 1 1 42.072874,5.1497974 A 3.6437247,4.0809717 0 1 1 49.360323,5.1497974 z"
	   transform="matrix(0.9796989,-0.4402429,0.4708004,1.0872203,-5.7516474,22.768581)" />
	<path
	   sodipodi:type="arc"
	   style="fill:#ffa2a2;fill-opacity:1;fill-rule:nonzero;stroke:#000000;stroke-width:0.91591263;stroke-miterlimit:4;stroke-dasharray:none;stroke-opacity:1;display:inline"
	   id="path6123"
	   sodipodi:cx="45.716599"
	   sodipodi:cy="5.1497974"
	   sodipodi:rx="3.6437247"
	   sodipodi:ry="4.0809717"
	   d="M 49.360323,5.1497974 A 3.6437247,4.0809717 0 1 1 42.072874,5.1497974 A 3.6437247,4.0809717 0 1 1 49.360323,5.1497974 z"
	   transform="matrix(0.9796989,-0.4402429,0.4708004,1.0872203,-4.0721743,20.626386)" />
	<path
	   style="fill:none;fill-rule:evenodd;stroke:#000000;stroke-width:1px;stroke-linecap:butt;stroke-linejoin:miter;stroke-opacity:1"
	   d="M 38.074393,4.9838057 C 32.050101,11.202429 21.264676,23.251012 21.264676,23.251012 L 18.25253,33.842105 L 29.523785,26.94332 L 44.19585,11.785425 L 43.71002,11.882591"
	   id="path6125"
	   sodipodi:nodetypes="cccccc" />
	<path
	   style="fill:none;fill-rule:evenodd;stroke:#000000;stroke-width:1px;stroke-linecap:butt;stroke-linejoin:miter;stroke-opacity:1"
	   d="M 19.612854,29.080972 L 23.402328,30.82996"
	   id="path6127" />
	<path
	   style="fill:none;fill-rule:evenodd;stroke:#000000;stroke-width:1px;stroke-linecap:butt;stroke-linejoin:miter;stroke-opacity:1"
	   d="M 21.556174,23.05668 L 24.08249,23.54251 L 24.276822,26.94332 L 29.718117,26.651822 L 29.620951,26.846154"
	   id="path6129" />
	<path
	   style="fill:none;fill-rule:evenodd;stroke:#000000;stroke-width:1px;stroke-linecap:butt;stroke-linejoin:miter;stroke-opacity:1"
	   d="M 24.179656,23.445344 L 37.977227,9.647773"
	   id="path6131" />
	<path
	   style="fill:none;fill-rule:evenodd;stroke:#000000;stroke-width:1.0837698px;stroke-linecap:butt;stroke-linejoin:miter;stroke-opacity:1"
	   d="M 25.096035,26.707103 C 25.873338,26.008052 39.975828,11.82731 39.975828,11.82731"
	   id="path6133" />
	<path
	   style="fill:#ffff00;fill-opacity:1;fill-rule:nonzero;stroke:#000000;stroke-width:0.09716599;stroke-miterlimit:4;stroke-dasharray:none;stroke-opacity:1"
	   d="M 24.696666,24.94656 L 24.642457,23.804859 L 31.168951,17.26783 C 37.570713,10.855737 37.698234,10.735008 37.841194,10.950622 C 37.921356,11.071519 38.168197,11.394393 38.389726,11.668115 L 38.792508,12.165792 L 31.830768,19.127026 C 28.001816,22.955705 24.842454,26.08826 24.809962,26.08826 C 24.777479,26.08826 24.726496,25.574495 24.696676,24.94656 L 24.696666,24.94656 z"
	   id="path6135" />
	<path
	   style="fill:#dbdb11;fill-opacity:1;fill-rule:nonzero;stroke:#000000;stroke-width:0.09716599;stroke-miterlimit:4;stroke-dasharray:none;stroke-opacity:1"
	   d="M 33.058762,19.589626 L 39.766257,12.876301 L 40.306062,13.115029 C 40.602953,13.246331 41.053735,13.388608 41.307795,13.431203 L 41.769732,13.508644 L 35.7002,19.785939 L 29.630668,26.063233 L 29.047672,26.122016 C 28.727024,26.154352 27.989165,26.20829 27.407977,26.241879 L 26.351277,26.302951 L 33.058762,19.589626 z"
	   id="path6139" />
	<path
	   style="fill:#dbdb11;fill-opacity:1;fill-rule:nonzero;stroke:#000000;stroke-width:0.09716599;stroke-miterlimit:4;stroke-dasharray:none;stroke-opacity:1"
	   d="M 23.238652,22.836087 C 22.929528,22.768466 22.654402,22.690946 22.627283,22.66382 C 22.549599,22.586136 30.458639,13.87907 34.820556,9.240222 L 36.820951,7.1128339 L 36.88889,7.9770622 C 36.92625,8.4523914 37.020375,9.020568 37.098059,9.239676 L 37.23929,9.638058 L 30.56832,16.308501 C 26.899283,19.977248 23.875604,22.974468 23.849029,22.968992 C 23.822454,22.963516 23.547785,22.903709 23.238652,22.836088 L 23.238652,22.836087 z"
	   id="path6141" />
	<path
	   style="fill:#ffac80;fill-opacity:1;fill-rule:nonzero;stroke:#000000;stroke-width:0.09716599;stroke-miterlimit:4;stroke-dasharray:none;stroke-opacity:1"
	   d="M 21.763021,29.470916 C 20.962937,29.100983 20.299536,28.789518 20.288789,28.778774 C 20.259844,28.74981 21.690001,23.745528 21.74214,23.693387 C 21.766684,23.668853 22.180689,23.724301 22.662185,23.816602 L 23.537622,23.984418 L 23.594882,24.769135 C 23.626373,25.200726 23.680534,26.005784 23.715241,26.558153 L 23.778341,27.562457 L 24.081023,27.510107 C 24.507096,27.436406 27.79495,27.316045 27.735931,27.376305 C 27.695219,27.417879 23.41256,30.046049 23.266296,30.119223 C 23.239575,30.132588 22.563105,29.840853 21.763021,29.470918 L 21.763021,29.470916 z"
	   id="path6143" />
	<path
	   style="fill:#424243;fill-opacity:1;fill-rule:nonzero;stroke:#000000;stroke-width:0.09716599;stroke-miterlimit:4;stroke-dasharray:none;stroke-opacity:1"
	   d="M 19.219876,32.436181 C 19.248822,32.338346 19.413032,31.755466 19.584783,31.140892 C 19.756543,30.526317 19.925602,29.990031 19.960475,29.949146 C 20.026519,29.87172 22.003138,30.740113 22.003138,30.846555 C 22.003138,30.898986 20.072129,32.114988 19.401683,32.484761 C 19.189366,32.601855 19.172216,32.597276 19.219876,32.436178 L 19.219876,32.436181 z"
	   id="path6147" />
  </g>
</svg>
